<!-- by TradingView --><svg width="56" height="56" xmlns="http://www.w3.org/2000/svg"><path fill="#EE3224" d="M0 0h56v56H0z"/><path d="M37.592 28.012c.11 5.472-4.834 9.988-8.967 9.988H18.409L12 44h16.514c5.272 0 10.33-4.743 10.33-10.405 0-1.663-.202-3.829-1.252-5.471v-.112zM35.839 32c.637-1.139.95-1.783 1.027-3h-4.635c0 1.129-.188 1.75-.612 3h4.22zm-4.522 1c-.526 1.339-1.776 3.05-2.992 4 2.355 0 5.046-.998 7.013-4h-4.021zm-.526-1c.414-1.139.603-1.783.715-3h-7.012c.112 1.217.301 1.861.714 3h5.583zm-6.385 0c-.413-1.25-.637-1.87-.637-3h-4.634c.111 1.217.413 1.861 1.026 3h4.245zM28 36.5c.915-.827 1.954-2.361 2.479-3.5H25.52c.526 1.139 1.541 2.673 2.479 3.5zM20.575 33c2.054 3.002 4.745 4 7.135 4-1.252-.951-2.579-2.661-3.005-4h-4.13zm11.044-9c.424 1.105.612 2.75.612 4h4.635c-.077-1.25-.39-2.895-1.027-4h-4.22zm3.719-1c-1.967-2.88-4.658-3.753-7.013-3.753 1.216.916 2.466 2.392 2.992 3.753h4.02zm-10.13 1c-.413 1.105-.602 2.75-.714 4h7.012c-.112-1.25-.302-2.895-.715-4h-5.583zm-5.046 0c-.613 1.105-.915 2.75-1.026 4h4.633c0-1.25.224-2.895.638-4h-4.245zm7.85-3.95c-.938.827-1.965 1.811-2.49 2.95h4.958c-.526-1.139-1.553-2.123-2.468-2.95zM24.706 23c.426-1.362 1.753-2.838 3.005-3.753-2.39 0-5.082.872-7.135 3.753h4.13zm-6.297 4.9C17.383 26.27 17 24.164 17 22.5 17 16.838 22.217 12 27.485 12h16.517l-6.41 6H27.375c-4.108 0-9.079 4.63-8.966 9.9z" fill="#fff"/></svg>