<!-- by TradingView --><svg width="56" height="56" xmlns="http://www.w3.org/2000/svg"><path fill="#F0F3FA" d="M0 0h56v56H0z"/><path d="M35.303 30.697c-.415-.495-.996-.614-1.743-.697H19.12c-.983 0-.602-1 .083-1h14.523c1.743-.083 3.569-1.605 4.233-3.257l.83-2.147c0-4.37-5.34-7.596-9.212-7.596-4.15 0-7.718 2.642-8.963 6.358a4.547 4.547 0 00-2.987-.826c-1.992.165-3.569 1.817-3.818 3.798-.083.496 0 .991.083 1.487C10.656 26.899 8 29.54 8 32.843c0 .33 0 .578.083.908 0 .165.166.248.249.248h26.639c.563-.945 1.16-2.314.332-3.303z" fill="#F48120"/><path d="M40.117 23.762h-.415c-.083 0-.166.082-.25.165l-.58 1.981c-.25.826-.166 1.652.249 2.147.415.495.996.862 1.742.945h3.071c.953 0 .72 1-.083 1h-3.154c-2.15.102-3.946 1.73-4.398 3.752-.083.083 0 .248.166.248H47.42c.167 0 .25-.083.25-.248.166-.66.331-1.403.331-2.147 0-4.293-3.568-7.843-7.883-7.843z" fill="#F8AD3F"/></svg>