<!-- by TradingView --><svg width="56" height="56" xmlns="http://www.w3.org/2000/svg"><path fill="url(#paint0_linear)" d="M0 0h56v56H0z"/><path d="M51 31.554c0 .32-.45.446-.775.446H43v-1.455h6v-1.29h-5.075c-.675 0-.925-.247-.925-1.016v-2.333c0-.659.25-.906.85-.906H51v1.455h-6v1.18h5.125c.35 0 .875.076.875.478v3.441zM24 30v2h-2.003v-7h7.13c.652 0 .87.245.87.98v2.803c0 .925-.242 1.197-1.04 1.224h-.217L29.997 32h-2.012l-1.376-2H24zm0-2h4v-1h-4v1zM16.988 32h-2.955C13.288 32 13 31.7 13 30.824v-4.648c0-.848.288-1.176 1.033-1.176h5.958c.745 0 1.009.3 1.009 1.148v4.676c0 .848-.264 1.149-1.009 1.149-.985.027-1.994.027-3.003.027zM15 30h4v-3h-4v3zM20 20.927l1.467-.484.788 1.26 1.045-.378-.574-1.309 1.267-.426.527 1.308.908-.313-.335-1.309.939-.276.855.276s-.215.854-.359 1.338c.311.114.909.313.909.313l.548-1.27s.839.245 1.221.388c-.191.427-.382.853-.574 1.309.335.114.748.27 1.082.355l.747-1.231 1.5.487L29.857 24h-7.842L20 20.927zM11.697 28v2H7v2H5v-7h7v2H7v1h4.697zM31 25h8v2h-3v5h-2v-5h-3v-2zM40 25h2v7h-2v-7z" fill="#fff"/><defs><linearGradient id="paint0_linear" x1="10.418" y1="9.712" x2="68.147" y2="76.017" gradientUnits="userSpaceOnUse"><stop stop-color="#1A1E21"/><stop offset="1" stop-color="#06060A"/></linearGradient></defs></svg>