<!-- by TradingView --><svg width="56" height="56" xmlns="http://www.w3.org/2000/svg"><path fill="#228ECD" d="M0 0h56v56H0z"/><path d="M4 26h1.004v.933c.35-.615.724-.938 1.359-.938.634 0 1.115.284 1.385.914.058 0 .066-.047.087-.078.329-.544.802-.804 1.4-.828.387-.016.751.063 1.08.315.386.3.576.733.649 1.23.021.173.036.347.036.528 0 .265.003 2.924 0 2.924h-.999c-.003 0 0-2.412 0-2.648 0-.476-.032-1.315-.576-1.49-.481-.15-.933.008-1.203.418-.219.33-.215.717-.222 1.111V31H6.996v-2.916a2.37 2.37 0 00-.066-.6c-.116-.425-.341-.661-.75-.677-.908-.043-1.194.897-1.176 1.632V31H4v-5z" fill="#fff"/><path d="M47.855 27.421a.311.311 0 00-.021.047h0l-.015.032v-.005c0-.016 0-.032.002-.049h0l.002-.054v-.798a.273.273 0 00-.03-.136.132.132 0 00-.054-.052.15.15 0 00-.082-.014c-.05.004-.097.018-.129.058a.262.262 0 00-.043.148h0v6.712a.177.177 0 00.015.064.133.133 0 00.056.06.22.22 0 00.097.026h.003a.15.15 0 00.108-.036c.036-.034.051-.088.051-.161v-3.184a.96.96 0 00.004-.08l.014.025c.083.17.182.326.312.46.321.343.68.568 1.07.673.39.105.808.091 1.246-.036h0c.86-.257 1.36-.881 1.55-1.762.133-.409.1-1.002-.03-1.403-.334-1.281-1.513-1.911-2.674-1.655h0c-.646.148-1.133.53-1.452 1.12zm0 0s0 0 0 0l.044.024m-.044-.024s0 0 0 0l.044.024m0 0c.312-.578.788-.95 1.42-1.095l-1.489 1.22c.025-.023.037-.053.05-.082a.436.436 0 01.02-.043zm-.047 1.673h0a2.374 2.374 0 01.505-1.85c.406-.49 1.017-.783 1.741-.678 1.102.16 1.659 1.196 1.659 2.238-.035 1.194-.917 2.21-2.159 2.08h0c-.946-.095-1.608-.872-1.746-1.79z" fill="#fff" stroke="#fff" stroke-width=".1"/><path d="M26 26.955c.132-.363.65-.749 1.242-.783.427-.023.824.068 1.171.365.497.43.587 1.042.587 1.658V31h-1v-2.585s.073-1.267-.599-1.422C26.498 26.785 26 27.68 26 28.46V31h-1v-7h1v2.955zm-10.89 3.41c-.046 0-.062.039-.085.07-.431.545-1.009.742-1.671.702a1.964 1.964 0 01-.817-.213c-.786-.402-.901-1.245-.655-1.892.085-.229.262-.394.463-.528.346-.245.731-.347 1.14-.418.477-.079.955-.074 1.432-.09.178-.008.178-.008.17-.181-.008-.576-.354-.96-.948-1.022-.554-.055-1.153.18-1.584.543l-.504-.605s.232-.199.317-.262c.524-.347 1.101-.489 1.717-.473.208.008.416.032.624.087.74.205 1.218.789 1.28 1.577.015.15.015.3.015.45 0 0 .006 2.901-.004 2.901h-.89v-.646zm-.478-1.68c-.338.016-.693.032-1.04.118a1.44 1.44 0 00-.616.292.551.551 0 00-.2.308.712.712 0 00.5.906c.24.071.486.071.732.04.309-.04.57-.182.77-.434.263-.331.332-.725.317-1.135 0-.063-.031-.087-.093-.087-.123-.008-.239-.008-.37-.008zm9.738-1.728c.002.003-.672.539-.672.539-.542-.7-1.952-.746-2.42.417-.215.548-.2 1.095.06 1.627.49 1.004 1.847.924 2.427.308.134.126.607.577.605.578-.223.236-.573.498-.878.597-1.279.4-2.76-.143-3.187-1.475-.47-1.426.276-2.981 1.783-3.316.812-.216 1.74.096 2.282.725zm-4.804 3.219v.77c-.328.183-1.05.172-1.399.04-.543-.203-.728-.777-.728-1.31L17.432 27h-.884v-.757l.884-.007V25l.906-.002v1.245h1.226V27h-1.226v2.548c0 .306.062.661.409.746.272.07.574.014.82-.118z" fill="#fff"/><path d="M33.926 30.014h0c-.23.394-.517.69-.86.882a2.18 2.18 0 01-1.184.26c-.888-.031-1.566-.46-1.938-1.292h0c-.438-.989-.363-1.966.303-2.834.906-1.192 2.82-1.066 3.596.217.037.06.073.122.11.185a.335.335 0 01-.002-.03v0-.875c0-.03.001-.058.005-.08a.116.116 0 01.033-.067.121.121 0 01.068-.028.578.578 0 01.078-.004c.04 0 .08.009.109.039.029.03.037.07.037.11v4.252c0 .505-.06 1.007-.256 1.479-.32.794-1.013 1.27-1.859 1.27-.349 0-.705-.007-1.056-.124h0a2.478 2.478 0 01-1.023-.652.18.18 0 01.07-.301.088.088 0 01.054-.004.094.094 0 01.04.019.25.25 0 01.052.052l.012.013-.036.035m3.647-2.522l-1.34 3.112c-.862.194-1.631.015-2.271-.625l-.036.035m3.647-2.522l.001-.004m-.001.004l.001-.004m-3.648 2.526c.654.654 1.441.836 2.318.639l-2.377-.7a.26.26 0 01.044.044l.015.017zm3.648-2.526a.335.335 0 00.01-.02m-.01.02l.01-.02m0 0v.21-.21zm-.329 2.332c.225-.409.299-.864.32-1.332l-.32 1.332zm0 0c-.232.415-.57.701-1.022.804l1.022-.804zm-3.343-2.537h0c-.372-.792-.35-1.589.087-2.342.615-1.059 2.011-1.252 2.91-.43.448.415.704 1.024.704 1.857-.015.518-.254 1.105-.77 1.552h0c-.862.749-2.36.584-2.931-.637zm7.409-.841h0c.088 1.169.915 1.887 1.848 1.953h0c.73.053 1.344-.163 1.808-.749l-3.656-1.204zm0 0v-.002m0 .002v-.002m0 0a1.131 1.131 0 01-.001-.147l.001-.084c0-.56.146-1.073.508-1.495.5-.563 1.143-.742 1.865-.645.977.133 1.667.895 1.732 1.969h0m-4.105.402l4.105-.402m0 0c.044.591-.08 1.14-.45 1.608l.45-1.608zm.345.203h0v-.004a8.218 8.218 0 01-.004-.1c-.004-.107-.008-.214-.026-.316-.129-.89-.584-1.544-1.412-1.886h0a2.461 2.461 0 00-1.85-.023c-.698.256-1.162.771-1.382 1.5h0a2.969 2.969 0 00-.03 1.5h0a2.3 2.3 0 00.524 1.034h0c.6.662 1.36.855 2.206.731h0a2.187 2.187 0 001.664-1.166h0a2.74 2.74 0 00.31-1.27zm3.682 1.811a3.149 3.149 0 00.281-.42l-.001.152c-.001.19-.001.416.004.562v.003l.001.053c.002.018.007.04.02.06.028.044.08.055.139.055.038 0 .07-.01.094-.029a.155.155 0 00.05-.061.21.21 0 00.018-.073v-.008h0v0l.03-4.212v0-.003c0-.031 0-.083-.015-.129a.134.134 0 00-.134-.101.185.185 0 00-.098.024.142.142 0 00-.056.067.374.374 0 00-.02.144v2.052c0 .376-.044.742-.189 1.083h0l-.162.75m.038.032s0 0 0 0l-.038-.032m.038.032s0 0 0 0l-.038-.032m.038.032a1.866 1.866 0 01-2.038.547m2-.58c-.52.616-1.337.76-1.984.533m-.016.047s0 0 0 0l.016-.047m-.016.047s0 0 0 0l.016-.047m-.016.047l.016-.047m-1.053-4.493v.002l.05-.004h-.05v.002zm1.886 4.314l.007.05-.007-.05s0 0 0 0zM35.7 26.559v-.051a.201.201 0 00-.011-.065.12.12 0 00-.051-.063.177.177 0 00-.093-.022.153.153 0 00-.103.036.162.162 0 00-.047.075.254.254 0 00-.011.087v.006h0l.005 2.705.002 1.163v.477h0c-.003.057.009.106.052.134.019.013.04.019.06.022a.53.53 0 00.057.003c.04 0 .084-.005.117-.035.034-.031.041-.077.038-.124v-2.256c0-.315.043-.614.131-.906.212-.688.71-1.239 1.448-1.197a.13.13 0 00.098-.018c.034-.025.046-.065.046-.107a.23.23 0 00-.02-.107.115.115 0 00-.047-.048.15.15 0 00-.072-.017h0-.001 0-.001 0-.001 0-.001 0-.001 0-.001 0-.001 0-.001 0-.001 0-.001 0-.001 0-.001 0-.001 0-.001 0-.001 0-.001 0-.001 0-.001 0-.001 0-.001 0-.001 0-.001 0-.001 0-.001 0-.001 0-.001 0-.001 0-.001 0-.001 0-.001 0-.001 0-.001 0-.001 0-.001 0-.001 0-.001 0-.001 0-.001 0-.001 0-.001 0-.001 0-.001 0-.001 0-.001 0-.001 0-.001 0-.001 0-.001 0-.001 0-.001 0-.001 0-.001 0-.001 0-.001 0-.001 0-.001 0-.001 0-.001 0-.001 0-.001 0-.001 0-.001 0-.001 0-.001 0-.001 0-.001 0-.001 0-.001 0-.001 0-.001 0-.001 0-.001 0-.001 0-.001 0v0h-.002c-.33.008-.624.088-.871.245a1.614 1.614 0 00-.591.703 1.79 1.79 0 00-.062.132c-.002-.106 0-.215.002-.325l.001-.046c.003-.134.005-.27-.002-.401z" fill="#fff" stroke="#fff" stroke-width=".1"/></svg>