<!-- by TradingView --><svg width="56" height="56" xmlns="http://www.w3.org/2000/svg"><path fill="url(#paint0_linear)" d="M0 0h56v56H0z"/><path fill-rule="evenodd" d="M19 18a1 1 0 00-1 1v18a1 1 0 001 1h18a1 1 0 001-1V19a1 1 0 00-1-1H19zm-2-6a5 5 0 00-5 5v22a5 5 0 005 5h22a5 5 0 005-5V17a5 5 0 00-5-5H17z" fill="#fff"/><path d="M23 25a2 2 0 012-2h6a2 2 0 012 2v6a2 2 0 01-2 2h-6a2 2 0 01-2-2v-6z" fill="#fff"/><defs><linearGradient id="paint0_linear" x1="10.418" y1="9.712" x2="68.147" y2="76.017" gradientUnits="userSpaceOnUse"><stop stop-color="#1A1E21"/><stop offset="1" stop-color="#06060A"/></linearGradient></defs></svg>