<!-- by TradingView --><svg width="56" height="56" xmlns="http://www.w3.org/2000/svg"><path fill="#EB0A1E" d="M0 0h56v56H0z"/><path d="M26.747 38.779c-2.098-1.21-3.643-5.386-3.643-10.347 0-.182.002-.361.006-.54l.002.002c-5.833-.844-10.048-3.158-10.156-5.893l-.017.031c-1.427 1.634-2.242 3.523-2.242 5.536 0 5.922 7.059 10.775 16.012 11.204l.038.007zM8 27.999C8 21.374 16.954 16 28 16s20 5.373 20 12-8.954 12-20 12S8 34.627 8 28zm20-10.267c2.132 0 3.946 2.98 4.618 7.136l.003-.006c4.148-.595 7.053-1.967 7.053-3.564 0-2.142-5.227-3.877-11.674-3.877-6.447 0-11.674 1.735-11.674 3.877 0 1.597 2.905 2.969 7.053 3.564l.003.006c.672-4.157 2.486-7.136 4.618-7.136zm1.291 21.04c8.953-.429 16.013-5.282 16.013-11.204 0-2.013-.816-3.902-2.243-5.536l-.017-.031c-.108 2.735-4.322 5.049-10.156 5.893l.002-.003c.004.18.006.36.006.541 0 4.961-1.546 9.137-3.642 10.347l.037-.007zM28 25.177c.955 0 1.884-.038 2.773-.11l-.002.002c-.442-2.665-1.516-4.546-2.771-4.546s-2.329 1.88-2.772 4.546v-.002c.888.072 1.817.11 2.772.11zm0 9.868c1.605 0 2.915-3.077 2.985-6.937l.008.003c-.967.083-1.968.126-2.993.126s-2.025-.043-2.993-.126l.009-.003c.069 3.86 1.378 6.937 2.984 6.937z" fill="#fff"/></svg>