<!-- by TradingView --><svg width="56" height="56" xmlns="http://www.w3.org/2000/svg"><path fill="#F12E45" d="M0 0h56v56H0z"/><path d="M28 39.783c-6.508 0-11.783-5.275-11.783-11.783 0-6.508 5.275-11.783 11.783-11.783 6.508 0 11.783 5.275 11.783 11.783 0 6.508-5.275 11.783-11.783 11.783zM28 12c-8.837 0-16 7.164-16 16 0 8.837 7.163 16 16 16s16-7.163 16-16c0-8.836-7.163-16-16-16z" fill="#fff"/><circle cx="24" cy="24" r="3" fill="#fff"/><circle cx="32" cy="24" r="3" fill="#fff"/><circle cx="32" cy="32" r="3" fill="#fff"/><circle cx="24" cy="32" r="3" fill="#fff"/></svg>