<!-- by TradingView --><svg xmlns="http://www.w3.org/2000/svg" width="56" height="56"><path fill="url(#attxriias)" d="M0 0h56v56H0z"/><path d="M37.5 12l-13.07 3.4-1.94 3.33-3.92-.03L9 28l9.57 9.3 3.92-.02 1.94 3.31L37.5 44 41 31.3 39.01 28 41 24.71 37.5 12zm-14.7 7.26l10-2.5-5.73 9.74H15.59l7.22-7.24zm0 17.48l-7.2-7.24h11.48l5.74 9.74-10-2.5zm12.8.93L29.86 28l5.74-9.67L38.38 28l-2.78 9.67z" fill="#fff"/><defs><linearGradient id="attxriias" x1="10.42" y1="9.71" x2="68.15" y2="76.02" gradientUnits="userSpaceOnUse"><stop stop-color="#1A1E21"/><stop offset="1" stop-color="#06060A"/></linearGradient></defs></svg>