<!-- by TradingView --><svg width="56" height="56" xmlns="http://www.w3.org/2000/svg"><path fill="url(#paint0_linear)" d="M0 0h56v56H0z"/><path d="M44.496 25.772a1.766 1.766 0 00-2.546-.13 2.99 2.99 0 00-.95 2.185v7.093c0 1.7-1.343 3.08-3 3.08s-3-1.38-3-3.08v-7.64c0-.538-.21-1.055-.586-1.44a1.963 1.963 0 00-2.828 0A2.065 2.065 0 0031 27.28v7.64c0 1.7-1.343 3.08-3 3.08s-3-1.38-3-3.08l.008-8.06a1.336 1.336 0 00-2.542-.577l-4.769 9.986a2.996 2.996 0 01-2.636 1.73 2.988 2.988 0 01-2.702-1.619l-7-12.835c-.786-1.498-.24-3.366 1.219-4.173 1.459-.806 3.278-.246 4.064 1.252l4.225 8.057 3.264-6.88c.812-1.711 2.503-2.797 4.357-2.797.348 0 .849.038 1.374.113 1.456.208 2.643 1.125 3.677 2.171a7.845 7.845 0 0110.533-.35c3.202-2.832 8.04-2.532 10.884.713A8.3 8.3 0 0151 27.12v7.799c0 1.7-1.343 3.08-3 3.08s-3-1.38-3-3.08v-7.8c0-.498-.18-.978-.504-1.348z" fill="#fff"/><defs><linearGradient id="paint0_linear" x1="10.418" y1="9.712" x2="68.147" y2="76.017" gradientUnits="userSpaceOnUse"><stop stop-color="#1A1E21"/><stop offset="1" stop-color="#06060A"/></linearGradient></defs></svg>