<!-- by TradingView --><svg width="56" height="56" xmlns="http://www.w3.org/2000/svg"><path fill="url(#paint0_linear)" d="M0 0h56v56H0z"/><path d="M43.97 22.189l-2.014-7.617a.742.742 0 00-.522-.527l-7.612-2.02a.742.742 0 00-.712.194l-5.1 5.103 10.671 10.679 5.1-5.104a.734.734 0 00.194-.712" fill="#4DD17D"/><path d="M12.046 33.82l2.019 7.612a.74.74 0 00.522.523l7.612 2.02a.737.737 0 00.712-.193l5.104-5.108L17.318 28l-5.104 5.107a.742.742 0 00-.19.713" fill="#E7CF12"/><path d="M22.188 12.029l-7.612 2.02a.737.737 0 00-.522.523l-2.02 7.612a.734.734 0 00.195.713L17.31 28 27.98 17.326l-5.1-5.107a.738.738 0 00-.712-.194" fill="#A0D637"/><path d="M43.71 33.036l-5.029-5.032-10.67 10.679 5.027 5.035a.918.918 0 00.885.237l7.418-1.966a.914.914 0 00.649-.653l1.964-7.415a.919.919 0 00-.236-.885" fill="#FF7ED8"/><path d="M28.008 17.323L17.34 28l10.672 10.679L38.68 28.002 28.008 17.324z" fill="#BE1B6B"/><defs><linearGradient id="paint0_linear" x1="10.418" y1="9.712" x2="68.147" y2="76.017" gradientUnits="userSpaceOnUse"><stop stop-color="#1A1E21"/><stop offset="1" stop-color="#06060A"/></linearGradient></defs></svg>