<!-- by TradingView --><svg width="56" height="56" xmlns="http://www.w3.org/2000/svg"><path fill="#CF0E2D" d="M0 0h56v56H0z"/><path d="M45.997 32.06S22.817 42.974 19.71 44.528c-.37.175-.806.262-1.337.269a3.776 3.776 0 01-1.506-.27c-.43-.174-.82-.43-1.149-.752-.31-.322-.612-.766-.887-1.33L8.31 28.74c-.638-2.074-.022-3.992 2.043-5l25.743-12.206c1.99-.995 4.13.153 5.047 1.99l6.379 13.435c.546 1.19.43 4.164-1.526 5.101zm-30.629 1.075s1.748-2.224 1.748-2.23c.574 1.279 1.784 2.257 3.233 2.257 2.2 0 3.61-2.05 3.652-4.066V23h-2v6.049c0 1.106-.358 1.973-1.452 1.973-1.137 0-1.548-.93-1.548-2.034V23h-2v5.968c0 1.204-.533 2.054-1.494 2.054-1.276 0-1.506-1.281-1.506-2.289V23h-2v5.995c0 2.218 1.004 3.972 3.367 4.14zm18.134-3.945c-.423.074-.746.282-1.048.565a3.45 3.45 0 01-.545.585.2.2 0 01-.02.026l.007-.013a3.3 3.3 0 01-2.05.733c-.854.013-1.654-.37-2.225-.901l-1.727.78 1.15-1.486c-.189-.383-.424-.96-.424-1.62.006-1.78 1.546-3.273 3.233-3.206.618.027.98.088 1.471.357l-3.427 4.355 6.916-3.273c-.666-2.064-2.736-3.542-4.98-3.542-2.931 0-5.31 2.379-5.31 5.31 0 2.93 2.379 5.33 5.31 5.31 2.486-.014 4.483-1.748 5.06-3.684-.1-.06-.517-.45-1.39-.296zM33.374 33h2.796l2.77-3.373L41.709 33h2.293l.281-.133-3.945-5.034L44.303 23h-2.796l-2.567 3.045L36.372 23h-2.796l3.966 4.832L33.374 33z" fill="#fff"/></svg>