<!-- by TradingView --><svg width="56" height="56" xmlns="http://www.w3.org/2000/svg"><path fill="#005581" d="M0 0h56v56H0z"/><path d="M13.873 25h1.15l3.217 5.995h-1.522L16.153 30h-3.514l-.529.995h-1.484L13.873 25zm1.82 4l-1.282-2.718L13.103 29h2.59zM27 25h2.535c1.4 0 2.326.578 2.326 1.92 0 .86-.342 1.71-1.3 1.968L32.218 31h-1.389l-1.409-2H28v2h-1v-6zm2.305 3c.73 0 1.394-.306 1.394-1.08 0-.707-.61-.92-1.279-.92H28v2h1.305zM20 25h2.535c1.4 0 2.326.578 2.326 1.92 0 .86-.342 1.71-1.3 1.968L25.218 31h-1.389l-1.409-2H21v2h-1v-6zm2.305 3c.73 0 1.394-.306 1.394-1.08 0-.707-.61-.92-1.279-.92H21v2h1.305zM34 25h1v6h-1v-6zM42.794 26.42c-.569-.462-1.093-.588-1.623-.588-1.591 0-2.818.942-2.818 2.132 0 1.276 1.227 2.225 2.818 2.225.62 0 1.22-.219 1.732-.728l1.13.628c-.696.74-1.744 1.065-2.875 1.065-2.377 0-4.077-1.25-4.077-3.114 0-1.917 1.7-3.166 4.077-3.166 1.048 0 1.943.264 2.703.945l-1.067.601zM46 25h1v2.551L50.2 25h1.552l-3.498 2.782 3.734 3.213h-1.626L47 28.06v2.935h-1V25zM4 25h2.957c1.192 0 2.203.455 2.203 1.539 0 .674-.336 1.124-1.155 1.309v.02c.996.085 1.49.674 1.49 1.44 0 1.303-1.28 1.692-2.773 1.692H4v-6zm1 2.464h1.571c.937 0 1.408-.304 1.408-.753 0-.516-.471-.711-1.532-.711H5v1.464zM5 30h1.584c.727 0 1.729.01 1.729-.777 0-.628-.537-.81-1.676-.81H5V30z" fill="#fff"/><path d="M49.981 32.994c.426-.175 1.52-.853 2.007-.997-15.962 0-48.02.037-48.02.037s30.723.873 46.013.96z" fill="#A39161"/></svg>