<!-- by TradingView --><svg width="56" height="56" xmlns="http://www.w3.org/2000/svg"><path fill="#ED1556" d="M0 0h56v56H0z"/><path d="M12.112 26.878c-.51-.509-1.47-.997-2.41-.53l-.097.06.04-.118c.47-.937-.021-1.895-.531-2.404-1.04-1.036-2.723-1.31-4.017-.02-2.312 2.308.411 5.143-.92 7.762L4 32l.353-.196c2.624-1.329 5.466 1.389 7.778-.919 1.295-1.29 1.02-2.971-.019-4.007zm-2.174 3.009c-1.262 1.26-2.813-.224-4.246.501l-.193.106.097-.202c.727-1.43-.76-2.978.502-4.237.707-.704 1.626-.555 2.193.01.278.278.276 1.012.02 1.524l-.021.064.053-.033c.513-.255 1.306-.2 1.584.079.567.565.717 1.483.011 2.188zM22.577 32v-.293h.807v-7.239h-.774v-.292A8.225 8.225 0 0024.546 24v7.707h.785V32h-2.754zm4.333-6.196c-.333 0-.58-.335-.58-.65 0-.291.29-.583.58-.583.312 0 .635.26.635.584a.627.627 0 01-.635.649zM25.63 32v-.27h.786v-4.417h-.786v-.27c.635.022 1.291-.021 1.947-.043v4.73h.796V32H25.63zm9.954-2.714c0 .39.16.54.57.54.462 0 .613-.097.613-.54v-1.504c0-.356-.205-.443-.57-.443-.452 0-.613.217-.613.443v1.504zM35.422 32c-.376 0-.43.378-.43.67 0 .681.473 1.06 1.119 1.06.87 0 1.678-.26 1.957-1.2.183-.617-.258-.53-.817-.53h-1.829zm1.667-1.158c.506 0 .882-.075 1.183.347.162.227.205.508.205.778 0 1.395-1.162 2.033-2.41 2.033-.73 0-1.764-.346-1.764-1.244 0-.421.323-.767.689-.907-.43-.163-.7-.498-.7-.985 0-.648.399-.94.969-1.102-.409-.26-.721-.617-.721-1.125 0-.951.753-1.514 1.635-1.514.495 0 .86.162 1.226.487.216-.26.409-.53.785-.53.258 0 .474.173.474.443 0 .26-.13.39-.388.39-.257 0-.354-.368-.44-.368-.119 0-.215.151-.291.227.183.216.258.497.258.8 0 .486-.258 1.006-.688 1.254-.441.25-.99.173-1.442.173-.311 0-1.032.022-1.032.487 0 .27.194.357.43.357h2.022zM40 26.07c.388 0 .613-.047 1-.07v1.405h1.022v.345H41v3.167c0 .37.01.633.42.633.344 0 .548-.287.655-.61l.216.115c-.226.646-.689.945-1.313.945C40 32 40 31.643 40 31.01v-3.26h-.85v-.345H40v-1.336z" fill="#fff"/><path d="M30.47 28.15h-.022v-1.126a53.87 53.87 0 00-.53.022c-.48.022-.94.044-1.341.026v.3h.73V31.7h-.73v.3h2.549v-.3h-.678v-1.762c0-.564 0-1.116.14-1.511.162-.444.58-.995 1.043-.995.635 0 .627.632.616 1.544-.001.123-.003.253-.003.386V31.7h-.677v.3h2.495v-.3h-.678v-2.398l.001-.253C33.393 27.96 33.4 27 32.072 27c-.774 0-1.259.407-1.602 1.15zm-9.974.205c.344-.66.72-1.355 1.506-1.355.42 0 .86.24.86.78 0 .467-.29.67-.677.67-.258 0-.516-.251-.516-.55 0-.049.01-.12.021-.18.032-.192.043-.265-.075-.265-.204 0-.311.12-.45.275l-.002.001c-.409.456-.667 1.103-.667 2.674V31.7h.968v.3H18.7v-.3h.634v-4.328h-.71v-.3c.414.018.88-.004 1.36-.026.169-.008.34-.016.512-.022v1.33zM16.55 30.86h-.032c-.302.67-.883 1.139-1.582 1.139-1.032 0-1.3-.6-1.3-1.163v-3.465h-.7v-.3c.397.018.858-.004 1.332-.026.168-.008.338-.016.507-.022v3.807c-.002.453-.003.785.516.785.399 0 1.259-.491 1.259-1.93v-2.314h-.818v-.3c.494.018.988-.005 1.478-.027l.48-.021V31.7h.753v.3c-.112 0-.223-.002-.335-.003-.522-.005-1.108 0-1.558 0V30.86zm27.836-3.621c-.987 0-.984.82-.98 2.036v.254c0 1.558.022 2.23.98 2.23.957 0 .979-.672.979-2.23v-.254c.005-1.217.008-2.036-.98-2.036zm0-.24c1.215 0 2.259 1.187 2.259 2.53 0 1.343-1.044 2.47-2.26 2.47-1.215 0-2.258-1.128-2.258-2.47 0-1.343 1.043-2.53 2.259-2.53zm4.02 1.15h-.021v-1.126c-.178.006-.355.014-.53.022-.479.022-.94.044-1.341.026v.3h.73V31.7h-.73v.3h2.548v-.3h-.677v-1.762c0-.564 0-1.116.14-1.511.162-.444.58-.995 1.043-.995.635 0 .627.632.617 1.544a31.55 31.55 0 00-.004.386V31.7h-.677v.3h2.495v-.3h-.678v-2.398l.002-.253c.008-1.088.014-2.049-1.314-2.049-.774 0-1.258.407-1.602 1.15z" fill="#fff"/></svg>