<!-- by TradingView --><svg width="56" height="56" xmlns="http://www.w3.org/2000/svg"><path fill="#CB1320" d="M0 0h56v56H0z"/><path d="M22 17h-3v14.78c-.01 1.341-.355 2.378-1.107 3.124-.741.745-1.716 1.096-2.925 1.096H13v3h1.968c2.123 0 3.82-.586 5.089-1.759C21.337 36.07 22 34.444 22 32.367V17z" fill="#fff"/><path d="M25 17v22h7.097c1.991-.02 3.733-.442 5.226-1.267 1.503-.825 2.656-2.305 3.458-3.845.813-1.54 1.219-3.334 1.219-5.381V27.12c-.01-1.998-.422-3.766-1.234-5.307-.802-1.54-1.945-2.727-3.428-3.562C35.855 17.417 34.15 17 32.22 17H25zm3 19V20h4.296c2.173.02 3.849.715 5.027 2.087C38.511 23.448 39 24.769 39 27.233V28.5c0 2.534-.524 4.072-1.784 5.443-1.249 1.371-3 2.057-5.256 2.057H28z" fill="#fff"/></svg>