<!-- by TradingView --><svg width="56" height="56" xmlns="http://www.w3.org/2000/svg"><path fill="#0460A9" d="M0 0h56v56H0z"/><path d="M28.148 36.92L30.566 12h-5.017l2.417 24.92h.182z" fill="#fff"/><path d="M32.95 26.397l-.074.205c1.215.58 3.944 2.88 3.944 7.515 0 4.365-3.39 8.762-8.72 8.762-6.629 0-8.914-4.206-8.914-8.07 0-4.95 3.19-8.247 3.19-12.756-.035-3.285-2.157-6.107-5.116-6.804l-.109.204c1.053 1.108 1.643 2.635 1.634 4.226 0 4.872-3.785 8.334-3.785 13.924C15 38.753 18.318 44 27.924 44 36.485 44 41 39.451 41 34.612c-.006-4.154-2.746-7.668-8.05-8.215z" fill="url(#paint0_linear)"/><defs><linearGradient id="paint0_linear" x1="14.994" y1="43.997" x2="40.994" y2="43.997" gradientUnits="userSpaceOnUse"><stop offset=".3" stop-color="#E74A21"/><stop offset=".7" stop-color="#EC9A1E"/></linearGradient></defs></svg>