<!-- by TradingView --><svg width="56" height="56" xmlns="http://www.w3.org/2000/svg"><path fill="#00AAD9" d="M0 0h56v56H0z"/><path d="M18.614 9a4.587 4.587 0 00-4.589 4.584 4.586 4.586 0 004.589 4.583 4.586 4.586 0 004.588-4.583A4.586 4.586 0 0018.614 9zm3.597 8.768c-.111.09-.308.248-.576.426-.863.627-2.431 1.315-4.814.679-2.526-.675-3.382-3.023-3.589-3.59l-.004-.012c-.198-.545-.48-.585-.48.215 0 2.016.894 3.238 1.191 3.585.3.348.439.691.274.89l-.054.067c-.336.409-.765.93-.888 1.262-.024.066-.025.178-.026.279 0 .062-.001.12-.007.162-.051.35-.345.707-.738 1.182-.106.13-.22.267-.337.415-.314.397-.123.82.143 1.112.119.13.241.276.355.41.192.23.358.428.442.474.28.159.522.16.76.16.166 0 .33 0 .506.054l.039.012c.426.134 1.047.33 1.476 1.096.174.31.351.668.543 1.055.515 1.038 1.133 2.282 2.04 3.366.548.651.553 1.82.555 2.238v.017c.034 3.412-1.73 6.577-2.891 8.662l-.06.106c-.276.495-.22.902.152.905.25.003.524.003.896.001l.93-.001c.529 0 .536-.207.544-.426a.588.588 0 01.058-.286c.04-.067.113-.083.194-.101.164-.036.363-.08.399-.551.008-.12.018-.225.081-.681.392-2.82 1.77-7.019 2.626-7.561 1.264.825 2.78 2.194 3.23 4.98.137.852.218 1.61.137 2.335-.088.787-.156 1.158-.227 1.382-.237.755-.044.917.318.903 0 0 1.699.002 1.94 0 .516 0 .513-.208.51-.415-.001-.1-.003-.2.056-.276.043-.056.106-.08.169-.105.125-.05.248-.098.208-.392-.253-1.289-.717-2.476-1.18-3.665-.422-1.078-.843-2.157-1.109-3.315-.396-1.723.642-2.812 1.523-3.073 1.389-.413 3.291.27 3.535.408.032.018.06.034.085.05.15.088.19.112.342-.016 1.57-1.293 2.297-.663 2.337-.625.182.172.305 1.083.314 1.266.19 3.742-3.112 7.357-4.462 8.836a15.01 15.01 0 00-.448.503c-.339.415-.148.83.19.828h.396c.54 0 1.403 0 1.625-.006.489-.016.482-.208.476-.402-.004-.098-.007-.197.053-.275.042-.055.103-.07.17-.088.106-.027.225-.058.3-.257.58-1.55 1.778-4.526 4.269-6.537.217-.175.421-.612.605-1.604.06-.323.133-.571.214-.846l.04-.14c1.402 1.82 1.573 5.076-.8 9.358-.25.446-.094.794.19.794h.238c.437.004 1.307.01 1.624 0 .512-.018.501-.241.49-.47a2.016 2.016 0 01-.002-.098v-.008c0-.123 0-.327.444-.327.164 0 .346.003.48.005l.167.002h.118c.277.003.882.008 1.119-.018.308-.035.338-.35.344-.763.006-.613.04-7.601.006-8.46-.009-.218-.01-.57-.01-1.01-.004-1.973-.011-5.721-.774-7.09-1.111-1.994-3.338-1.808-4.378-1.722l-.016.001c-.342.03-.747.072-1.203.12-1.38.147-3.23.343-5.236.35-3.282.013-6.715-1.057-7.822-1.402-.133-.042-.233-.073-.294-.09a19.63 19.63 0 01-2.578-.954c-.52-.245-.29-.359-.06-.472l.033-.017c1.19-.593 2.185-1.223 2.805-2.227.474-.768.295-1.011-.231-.585l-.01.008zm17.953 8.69c0-.101 0-.167.002-.198.032-.345.24-.315.414.166.47 1.32.324 6.3.298 7.2l-.004.138c.004.166-.2.29-.34.12-.126-.16-.373-1.536-.537-2.445a54.718 54.718 0 00-.11-.599c-.091-.46-.017-.918.067-1.439.04-.246.081-.506.11-.788.104-1.087.101-1.817.1-2.155z" fill="#004F93"/><path d="M18.795 9.958a3.088 3.088 0 00-3.091 3.086 3.089 3.089 0 003.091 3.085 3.087 3.087 0 003.087-3.085 3.087 3.087 0 00-3.087-3.086zm8.911 14.8l.008.056c.102.796.088 1.678.084 1.954v.026c-.009.675.512.825.865.927l.043.012c.944.278 2.85.2 4.163-.414 1.025-.48.404-2.195.23-2.611-.18-.43-.53-.594-1.079-.546-.304.026-1.104.045-1.794.053-.37.004-.693-.015-1.13-.042-.233-.013-.498-.03-.82-.044-.658-.033-.622.241-.57.628zm8.024-.374c.528.583.841 1.543.907 1.957.067.412.625.253.694-.133.103-.574-.08-1.522-.502-2.03-.194-.235-.527-.339-.916-.265-.366.07-.466.156-.183.47zm-7.856 6.122l.037-.012c.944-.319 2.731-.532 5.904-.247a7.728 7.728 0 013.62 1.24c.357.232 1.262.822 1.653-.976.103-.459.295-1.451.33-1.91l.01-.111c.078-.773.46-4.57-1.727-4.557-.35.002-.324.14-.232.294.099.17.219.438.304.778.258 1.039.05 1.594-.31 1.945-.37.36-1.1.393-1.238-.132-.438-1.62-1.011-2.947-2.29-2.776-.264.035-.286.255-.16.57.116.284.285 1.044.34 1.65.072.817-.293 1.2-.861 1.537-.97.573-3.334.943-5.03.478-1.028-.28-1.061-1.057-1.061-1.355 0-.07 0-.182.002-.317.004-.446.01-1.14-.01-1.355-.074-.766-.163-1.19-.664-1.238-.49-.047-.486.013-.465.311.008.11.018.253.006.435v.007c-.006.155-.101 2.898-2.138 2.84-.51-.01-.78-.48-.684-.895.178-.789.287-1.565.263-2.42l-.002-.1c-.013-.572-.017-.74-1.28-1.147l-.034-.011c-.745-.24-1.089-.35-1.35-.25-.224.088-.387.33-.69.78l-.102.149c-.469.693-1.088 1.96-1.387 2.767-.604 1.632-.069 2.69.326 3.38.245.431.916 1.077 1.69 1.537a38.536 38.536 0 014.006 2.706c.338.257.542.327.555-.398.043-2.358 2.26-3.067 2.67-3.197zm-8.95-8.855c-.37-.202-.8-.437-1.227-.686l-.102-.06c-1.408-.82-2.133-1.243-2.675-.807-.58.467-1.018 1.103-1.098 1.326-.03.081-.043.204-.058.34-.027.236-.058.512-.184.666-.058.072-.128.17-.21.286-.123.175-.275.39-.459.613-.356.434-.193.619.138.991.06.069.126.143.196.227.187.223.477.246.835.274.457.036 1.023.08 1.625.556.507.4.71.717 1.309 1.658l.131.206c.235.37.378.152.57-.352.271-.7 1.192-2.658 1.892-3.727l.043-.065c.228-.344.492-.74.077-.996-.186-.113-.47-.268-.804-.45zm-4.245.242c-.44-.746 1.168-.956 1.245-.726.077.23-.805 1.473-1.245.726zm9.266 4.417c.097-.45.276-1.289.191-2.28-.037-.44.052-.465.61-.373.563.09.566.236.571.556v.032c.029 1.403-.335 2.317-.816 2.582-.266.148-.605.075-.612-.198 0-.053.023-.162.056-.319z" fill="#fff"/></svg>