<!-- by TradingView --><svg width="56" height="56" xmlns="http://www.w3.org/2000/svg"><path fill="url(#paint0_linear)" d="M0 0h56v56H0z"/><path d="M21 22.29c5.243 0 12.004 4.71 12.004 4.71v-1s-6.04-10-17.76-10h-3.608C10.72 16 10 16.629 10 17.363v9.968c0 1.04.72 1.669 1.636 1.669H21M35 33.656C29.748 33.656 23 29 23 29v.996S29.439 40 40.86 40h3.59c.933 0 1.55-.728 1.55-1.673v-9.672c0-.928-.617-1.656-1.55-1.656H35" fill="#fff"/><defs><linearGradient id="paint0_linear" x1="10.418" y1="9.712" x2="68.147" y2="76.017" gradientUnits="userSpaceOnUse"><stop stop-color="#1A1E21"/><stop offset="1" stop-color="#06060A"/></linearGradient></defs></svg>