<!-- by TradingView --><svg width="56" height="56" xmlns="http://www.w3.org/2000/svg"><path fill="#C7000D" d="M0 0h56v56H0z"/><path d="M27.995 28.735l-13.647 4.03c.397 1.58-.218 3.703.671 4.987.93 1.342 3.194 1.358 4.471 2.34 1.282.983 1.988 3.24 3.533 3.767 1.503.515 3.36-.85 5.029-.852 1.616-.003 3.418 1.374 4.877.89 1.531-.515 2.237-2.756 3.519-3.716 1.286-.968 3.548-.96 4.489-2.29.942-1.333.183-3.504.682-5.11l-13.624-4.046z" fill="#fff"/><path d="M25.11 27.67a.56.56 0 00-.308-.506l-10.535-3.666c-.574 1.493-2.27 2.863-2.267 4.53.004 1.666 1.806 3.021 2.291 4.526l10.492-4.368a.563.563 0 00.326-.516z" fill="url(#paint0_linear)"/><path d="M25.185 26.1h.006a.546.546 0 00.492-.332.582.582 0 00-.017-.5l-6.231-9.334c-1.311.853-3.417.9-4.318 2.177-.94 1.326-.287 3.558-.772 5.164l10.84 2.824z" fill="url(#paint1_linear)"/><path d="M27.144 24.705a.551.551 0 00.325-.45l.407-11.268c-1.583-.06-3.326-1.357-4.751-.883-1.525.512-2.23 2.736-3.501 3.7l6.935 8.787c.152.154.38.205.585.114z" fill="url(#paint2_linear)"/><path d="M30.95 27.659v.02a.564.564 0 00.324.507l10.436 4.368c.484-1.505 2.287-2.86 2.29-4.526.002-1.667-1.693-3.037-2.265-4.53l-10.478 3.666a.56.56 0 00-.308.495z" fill="url(#paint3_linear)"/><path d="M30.837 26.049h.006l10.814-2.774c-.487-1.606.164-3.838-.773-5.164-.903-1.277-3.008-1.324-4.318-2.177l-6.203 9.284a.579.579 0 00-.016.499c.09.207.284.33.49.332z" fill="url(#paint4_linear)"/><path d="M28.855 24.705a.561.561 0 01-.325-.45l-.423-11.268c1.584-.06 3.345-1.357 4.769-.883 1.524.512 2.231 2.736 3.5 3.7L29.44 24.59a.523.523 0 01-.586.114z" fill="url(#paint5_linear)"/><defs><linearGradient id="paint0_linear" x1="24.955" y1="23.241" x2="11.649" y2="23.998" gradientUnits="userSpaceOnUse"><stop stop-color="#FFE200"/><stop offset="1" stop-color="#F08300"/></linearGradient><linearGradient id="paint1_linear" x1="30.735" y1="20.034" x2="19.961" y2="10.204" gradientUnits="userSpaceOnUse"><stop stop-color="#FFE200"/><stop offset="1" stop-color="#F08300"/></linearGradient><linearGradient id="paint2_linear" x1="30.178" y1="21.557" x2="22.189" y2="11.137" gradientUnits="userSpaceOnUse"><stop stop-color="#FFE200"/><stop offset="1" stop-color="#F08300"/></linearGradient><linearGradient id="paint3_linear" x1="30.949" y1="32.555" x2="44.002" y2="32.555" gradientUnits="userSpaceOnUse"><stop stop-color="#FFE200"/><stop offset="1" stop-color="#F08300"/></linearGradient><linearGradient id="paint4_linear" x1="34.949" y1="30.552" x2="45.668" y2="20.748" gradientUnits="userSpaceOnUse"><stop stop-color="#FFE200"/><stop offset="1" stop-color="#F08300"/></linearGradient><linearGradient id="paint5_linear" x1="34.419" y1="28.136" x2="42.387" y2="17.683" gradientUnits="userSpaceOnUse"><stop stop-color="#FFE200"/><stop offset="1" stop-color="#F08300"/></linearGradient></defs></svg>