<!-- by TradingView --><svg width="56" height="56" xmlns="http://www.w3.org/2000/svg"><path fill="#0059B3" d="M0 0h56v56H0z"/><path d="M42.276 42.714h.342l.634-2.14a3.7 3.7 0 00-2.013-1.442 7.123 7.123 0 001.905-2.221 6.91 6.91 0 00.456-5.65 7.045 7.045 0 00-1.525-2.484l1.288-2.062c.173-.297.286-1.24.237-1.58a1.046 1.046 0 00-.207-.505 1.083 1.083 0 00-.437-.339l-3.393-1.279h-6.226L31 24.346V21h-1.358c.189-.14.352-.346.483-.539l-.05-.196c-.762.521-1.091.378-1.789.076a9.89 9.89 0 00-1.1-.418 2.518 2.518 0 00-1.196-.052 2.484 2.484 0 00-1.08.504c-.01-.085-.01-.17 0-.255.05-.422.393-.884 1.601-.805a25.11 25.11 0 001.913.069c.557.054 1.358-.067 1.841-.344.189-.138.345-.314.46-.515a1.61 1.61 0 00.204-.653C31 17.5 31 16.901 31 16.45V13H20v-.997h-2.58a3.09 3.09 0 00-1.182.18 3.032 3.032 0 00-1.017.615c-.293.27-.529.593-.692.952a2.882 2.882 0 00-.26 1.138 2.64 2.64 0 00.202 1.062c.14.337.348.643.612.9.265.257.58.459.926.594.158.062.756.085.956.093l.035.001v.002c.044 0 .038 0 0-.002V16.5s-.168-.048-.289-.108a1.332 1.332 0 01-.455-.369 1.291 1.291 0 01-.247-.523 2.165 2.165 0 01.007-.754c.023-.378.196-.734.48-.991.286-.258.678-.33.864-.33H18V15h3v1.275h-.583V17l2.583.7V15h6v1.645c.023.265.023.421 0 .686a.73.73 0 01-.252.5.921.921 0 01-.604.187H26.18c-1.208 0-2.688.364-2.688 2.072.002.344.076.683.218.997.142.314.349.597.608.83.258.232.563.411.896.524a2.63 2.63 0 001.036.133c.63.02 1.248-.23 1.752-.598H29V23.3c-1.196-.265-2.615-.22-3.788.127-.956.2-1.93.308-2.909.324-.924.004-1.503-.221-2.175-.838A3.478 3.478 0 0119 20.55l-1.127-.587c-.15 2.238.604 3.7 3.02 4.907 2.93 1.473 4.561 2.686 5.356 5.13h.745v-1.714c2.426 1.492 3.675 2.777 4.309 4.23.335.795.54 1.636.604 2.493h.232a7.165 7.165 0 00-.162-3.602 4.429 4.429 0 00-.302-.608l2.286.098c-.048.92-.021 1.842.08 2.758h-.815v.304h.855c.05.373.121.746.202 1.129h.241v-1.1l3.916.216c-.02.814-.107 1.625-.261 2.425l-.846.098v.157l.795.059c-.06.304-.14.608-.221.913h.292c.17-.284.325-.575.463-.874l3.11.236a6.059 6.059 0 01-1.801 1.747l-.624.068-6.202.933a6.877 6.877 0 00-.473-1.227c-1.305-2.61-2.96-3.74-11.074-9.04-2.607-1.698-6.714-4.475-7.932-6.743a5.029 5.029 0 01-.574-2.336c-.008-.821.41-1.623.908-2.287v-.755c-.593.372-1.23.89-1.552 1.502a3.843 3.843 0 00-.444 1.982c.009.789.173 1.569.484 2.297.523 1.315 1.379 2.444 3.543 4.348 2.014 1.767 3.383 3.229 4.158 5.192h.282v-1.963l1.49 1.03a13.871 13.871 0 014.63 4.987h.272v-1.856c3.302 2.16 5.668 4.182 6.181 8.255h.282a8.902 8.902 0 00-.12-2.945h5.577c1.792 0 3.493.491 3.493 2.307zM25.504 21.131c.261-.248.588-.459.945-.533.24-.05.977-.137 1.099.14-.123.16-.278.291-.457.388a1.478 1.478 0 01-.58.172 1.978 1.978 0 01-1.007-.167zm4.168 3.916l-2.698 1.55.02.02c-.815-.5-2.013-1.246-2.345-1.482a23.587 23.587 0 013.231-.51 4.112 4.112 0 011.792.422zm9.614 1.207l-.372.51.02.02a7.631 7.631 0 00-2.306-.294 7.407 7.407 0 00-3.291.821 7.203 7.203 0 00-2.548 2.192c-.698-.744-1.18-1.207-2.04-1.767L33.5 25h5.655l2.759 1.068-1.007 1.668a7.013 7.013 0 00-.815-.48l.322-1.07-1.611-.845-.09.167.573.746zm-1.107 4.78c.151.767.235 1.545.251 2.326l-3.865.265a18.73 18.73 0 01.433-2.689l3.18.098zm1.379 2.267c.055-.742.035-1.489-.06-2.228l2.607.099c.31.616.508 1.28.584 1.963l-3.131.166zm-2.587-5.437c.391.707.702 1.454.926 2.228l-2.738.157c.21-.794.472-1.575.785-2.336.217-.028.435-.044.654-.05h.373zm2.325 2.15a12.949 12.949 0 00-.533-1.777l.03.01c.933.369 1.759.955 2.406 1.707l-1.903.06zM42.69 34.4a4.884 4.884 0 01-.403 1.688l-3.493.432c.3-.74.515-1.511.644-2.297l3.252.177zm-10.973-4.015a5.816 5.816 0 012.516-2.051l.05.03a14.058 14.058 0 00-.341 1.904l-2.225.117zm-18.778-1.61c.152 2.147 1.877 3.597 7.303 6.866C25.949 39.112 27.533 41.228 28 44h-.304c-1.237-2.656-3.744-4.137-6.598-5.713v2.116h-.303a13.073 13.073 0 00-4.341-5.227 12.506 12.506 0 01-3.549-3.269 5.102 5.102 0 01-.9-2.93 4.27 4.27 0 01.683-2.222l.51.328a5.022 5.022 0 00-.26 1.693z" fill="#FD0"/></svg>