<!-- by TradingView --><svg width="56" height="56" xmlns="http://www.w3.org/2000/svg"><path fill="#01B5EF" d="M0 0h56v56H0z"/><path fill-rule="evenodd" d="M9 41V19.003h43L31.5 41H9zm24.834-11.473h.932C36.01 29.527 37 29.1 37 27.74c0-1.316-.991-1.74-2.235-1.74h-.932v3.526zm-10.456 2.271c.4.156.863.249 1.356.249h.002c.482 0 .932-.09 1.328-.237l-1.314-4.39h-.03l-1.342 4.378zM30 23h4.519c4.046 0 5.946 1.632 5.946 4.882 0 2.92-1.957 4.659-5.262 4.659H34V37h-6.438l-.62-2.265a6.876 6.876 0 01-2.207.35 6.874 6.874 0 01-2.258-.37L21.704 37h-3.843l.55-1.43-.155.14c-.959.796-2.158 1.26-3.643 1.29h-.22c-1.707 0-3.379-.513-4.791-1.344l1.307-2.686c1.416.866 2.306 1.059 3.505 1.034.622-.014 1.072-.13 1.364-.445.178-.189.27-.427.28-.68.01-.699-.95-1.026-2.125-1.401-.953-.31-2.033-.722-2.878-1.363-1-.761-1.477-1.713-1.453-3.054a3.77 3.77 0 011.012-2.555c.932-.994 2.433-1.506 4.234-1.506h.01c1.544 0 3.431.36 4.793 1.08l-1.47 2.649c-1.493-.747-2.245-.818-3.098-.863-1.264-.07-1.906.398-1.915.902-.011.617 1.2 1.174 2.339 1.553 1.727.566 3.924 1.325 4.258 3.518L22.924 23h3.665L30 33.546V23z" fill="#fff"/></svg>