<!-- by TradingView --><svg width="56" height="56" xmlns="http://www.w3.org/2000/svg"><path fill="#FFD500" d="M0 0h56v56H0z"/><path d="M28 43c-1.218 0-1.995-.914-1.995-.914-.998-.04-8.809-.023-8.809-.023l-.61-5.956s-4.811-3.229-5.2-3.606C9.08 22.52 17.426 13 27.999 13s18.925 9.519 16.614 19.501c-.39.372-5.202 3.606-5.202 3.606l-.911 5.956s-7.81-.024-8.809.023c0-.006-.475.914-1.692.914z" fill="#ED1C24"/><path d="M28.011 33.696l-.736-17.658c-.888-.174-3.163.035-4.38.898l3.54 16.824-4.83-16.134c-1.155-.012-3.497 1.855-3.668 2.406l7.05 14.313-7.92-13.078c-.778.278-2.488 3.27-2.214 3.617l8.827 10.302-9.082-8.795s-1.18 1.716-.414 4.615l5.128 3.53.592 4.714h6.29s1.081 1.037 1.811 1.037 1.705-1.037 1.705-1.037H36l.698-4.714 5.129-3.53c.772-2.904-.414-4.615-.414-4.615l-9.076 8.795 8.826-10.296c.274-.348-1.435-3.345-2.214-3.617l-7.92 13.084 7.05-14.313c-.176-.551-2.512-2.418-3.668-2.406L29.58 33.77l3.54-16.823c-1.216-.864-3.485-1.073-4.38-.899l-.73 17.647z" fill="#FCFCFC"/></svg>