<!-- by TradingView --><svg width="56" height="56" xmlns="http://www.w3.org/2000/svg"><path fill="#CFFC00" d="M0 0h56v56H0z"/><path d="M28.231 28.678c0 .778-.32 1.958-1.199 1.958-.819 0-.819-.652-.819-1.019l-.006-.95a178.99 178.99 0 01-.006-.883c0-.24 0-1.031.796-1.031.878 0 1.234 1.1 1.234 1.925zm-4.503-1.946c.405.108.535.314.513 1.19l.012 3.71c0 .253 0 1.044-.012 1.262 0 .327-.037.561-.48.634a.222.222 0 00-.185.22v.028a.214.214 0 00.071.158.23.23 0 00.168.06c.38-.015.669-.023 1.115-.023.588.004 1.175.013 1.762.029a.233.233 0 00.165-.063.219.219 0 00.068-.157c.001-.05-.017-.1-.05-.14a.226.226 0 00-.13-.075c-.492-.08-.52-.422-.52-.866v-1.437c0-.039.01-.076.03-.11a.234.234 0 01.307-.083c.23.12.562.232 1.017.232 1.484 0 2.755-1.203 2.755-2.933 0-1.26-.891-2.451-2.328-2.451-.583 0-1.043.15-1.509.438a.233.233 0 01-.3-.052.215.215 0 01-.043-.098 4.757 4.757 0 00-.04-.2.213.213 0 00-.103-.142.229.229 0 00-.178-.024c-.418.11-1.266.32-2.068.403a.23.23 0 00-.144.072.215.215 0 00-.057.146v.057c0 .049.015.096.045.134a.23.23 0 00.12.081zm10.76 4.466c1.263 0 1.578 0 2.06.034a.282.282 0 00.207-.072.263.263 0 00.084-.195.255.255 0 00-.066-.17.273.273 0 00-.165-.088c-.244-.032-.403-.093-.505-.208-.142-.183-.154-.252-.178-1.455l-.012-3.714c0-1.52 0-1.725.704-1.81a.273.273 0 00.184-.09.254.254 0 00-.032-.368.276.276 0 00-.197-.061h-.005c-.367.012-.795.026-1.462.026-.667 0-1.335-.009-2.002-.026a.268.268 0 00-.214.442.272.272 0 00.162.088c.363.059.504.106.593.31.084.16.096.424.107 1.294v3.806c0 1.452-.028 1.683-.694 1.774a.273.273 0 00-.17.1.255.255 0 00.04.356c.053.043.12.066.19.062.404-.027.68-.035 1.371-.035zm2.638-.444a.235.235 0 00-.2.23v.011a.225.225 0 00.078.173.242.242 0 00.185.06c.203-.02.42-.03.794-.03.971 0 1.49.015 1.893.04a.248.248 0 00.18-.063.233.233 0 00.076-.17v-.03a.23.23 0 00-.173-.224c-.291-.074-.385-.22-.385-.745 0-.51 0-2.139-.019-2.713a.228.228 0 01.099-.195c.24-.174.49-.288.81-.288.773 0 .796.63.808 1.18l.024 1.787c.01.698-.033.858-.38.948a.233.233 0 00-.178.224V31a.225.225 0 00.078.171.242.242 0 00.185.06c.241-.02.5-.033.972-.033.834 0 1.343.015 1.679.036a.246.246 0 00.18-.062.233.233 0 00.077-.17.225.225 0 00-.053-.147.24.24 0 00-.138-.082c-.393-.07-.474-.247-.474-.536 0-.101.006-.388.013-.665.005-.26.01-.513.01-.596v-.987-.019c-.048-.626-.145-1.218-.724-1.606-.368-.251-.82-.366-1.27-.366-.627 0-1.052.187-1.5.438a.248.248 0 01-.303-.043.232.232 0 01-.053-.093 2.065 2.065 0 00-.027-.088.23.23 0 00-.122-.136.247.247 0 00-.186-.012c-.47.157-1.364.4-1.955.5a.235.235 0 00-.201.23v.027c0 .05.016.099.047.14a.24.24 0 00.126.083c.28.077.48.235.48.81 0 .2.003.464.006.727.003.264.006.527.006.728 0 .171 0 .858-.036 1.123-.033.22-.25.294-.429.323zm12.193-.328a.284.284 0 00-.04-.44.31.31 0 00-.375.019c-.325.275-.69.47-1.132.47-.83 0-1.591-.87-1.591-2.164 0-.561.19-1.695.879-1.695.368 0 .605.39.712.607l.025.053c.203.443.229.5.332.588.13.126.344.206.522.206.404 0 .748-.332.748-.721 0-.825-1.104-1.317-2.268-1.317-1.77 0-3.218 1.053-3.218 2.691 0 1.558 1.247 2.693 2.945 2.693a3.6 3.6 0 002.46-.99zm2.681-.03c0-.596-.498-1.043-1.08-1.043-.487 0-1.057.356-1.057 1.066.003.27.117.528.318.717.2.19.47.294.75.291.571 0 1.07-.447 1.07-1.031zM4.001 28.94c.067.647.132 1.492.14 2.224a.26.26 0 00.09.195.28.28 0 00.21.069l.02-.002a.287.287 0 00.217-.128l.105-.168a.271.271 0 01.174-.122.289.289 0 01.212.034c.368.225 1.003.522 1.976.522 1.96 0 3.195-1.248 3.195-2.737 0-1.512-1.176-2.005-2.03-2.326a22.43 22.43 0 00-.545-.2c-.351-.125-.698-.249-1.035-.407-.25-.115-.82-.379-.82-.997 0-.538.499-1.202 1.342-1.202.653 0 1.176.355 1.568.87.163.236.247.414.396.794a.263.263 0 00.12.191.286.286 0 00.408-.1.262.262 0 00.01-.224 28.084 28.084 0 01-.226-1.95.267.267 0 00-.092-.18.286.286 0 00-.423.055l-.094.144a.284.284 0 01-.35.1 3.835 3.835 0 00-1.542-.308c-1.651 0-2.946.917-2.946 2.474 0 1.39 1.102 1.896 1.583 2.116l.009.004c.215.094.436.178.655.261l.39.151c1.164.424 1.758.71 1.758 1.42 0 .768-.654 1.376-1.545 1.376-1.223 0-1.805-.87-1.971-1.123a3.06 3.06 0 01-.4-.92.27.27 0 00-.118-.157.289.289 0 00-.196-.041l-.01.001a.279.279 0 00-.178.1.26.26 0 00-.057.191zm6.8 1.813a.235.235 0 00-.2.23v.011a.225.225 0 00.078.173.242.242 0 00.185.06c.203-.02.42-.03.793-.03.972 0 1.49.015 1.894.04a.25.25 0 00.18-.063.233.233 0 00.076-.17v-.03a.23.23 0 00-.174-.224c-.29-.074-.384-.22-.384-.745 0-.51 0-2.139-.019-2.713a.229.229 0 01.1-.195c.24-.174.488-.288.81-.288.772 0 .795.63.807 1.18l.024 1.787c.01.698-.033.858-.38.948a.233.233 0 00-.178.224V31a.226.226 0 00.078.171.243.243 0 00.185.06c.241-.02.5-.033.972-.033.835 0 1.343.015 1.68.036a.25.25 0 00.18-.062.233.233 0 00.076-.17.225.225 0 00-.053-.147.24.24 0 00-.138-.082c-.393-.07-.474-.247-.474-.536 0-.101.006-.388.012-.665.006-.26.011-.513.011-.596V27.97c-.048-.626-.145-1.218-.724-1.606-.368-.251-.82-.366-1.27-.366-.627 0-1.052.187-1.5.438a.249.249 0 01-.303-.043.23.23 0 01-.053-.093 2.065 2.065 0 00-.027-.088.233.233 0 00-.122-.136.246.246 0 00-.186-.012c-.47.157-1.364.4-1.955.5a.235.235 0 00-.201.23v.027c0 .05.016.099.047.14a.24.24 0 00.125.083c.281.077.481.235.481.81 0 .2.003.464.006.727.003.264.006.527.006.728 0 .172 0 .858-.036 1.123-.033.22-.25.294-.43.323zm10.12-1.78a.226.226 0 01.024.102v1.002c0 .038-.009.076-.027.11a.233.233 0 01-.078.083.862.862 0 01-.512.16c-.451 0-.618-.344-.618-.654 0-.602.532-.827.933-.925a.252.252 0 01.208.04c.03.022.053.05.07.082zm2.832 1.501a.244.244 0 00-.358-.078.374.374 0 01-.217.09c-.309 0-.297-.446-.285-.64l.023-2.555c0-.952-.747-1.272-1.769-1.272-1.472 0-3.1.687-3.1 1.535 0 .424.345.653.713.653.297 0 .63-.15.725-.538.018-.075.026-.152.035-.23.01-.077.018-.154.036-.229.071-.252.285-.48.677-.48.06 0 .534 0 .677.4.05.144.049.56.048.915 0 .054-.02.106-.056.148a.241.241 0 01-.14.079c-.946.164-3.035.711-3.035 2.02 0 .424.261 1.134 1.354 1.134.75 0 1.424-.365 1.751-.57a.245.245 0 01.32.053c.065.082.139.155.221.22.259.182.57.282.89.286.312 0 .878-.114 1.449-.671a.232.232 0 00.068-.177.226.226 0 00-.027-.093z" fill="#221F20"/></svg>