<!-- by TradingView --><svg width="56" height="56" xmlns="http://www.w3.org/2000/svg"><path fill="#E40001" d="M0 0h56v56H0z"/><path d="M47.271 24C43.717 24 41 25.905 41 29.224c0 2.8 2.472 4.776 5.79 4.776 2.52 0 4.611-1.881 5.21-3.068 0-.37-.36-.523-.695-.523-.577.916-2.21 1.615-2.88 1.588-4.012-.152-4.66-1.808-4.708-3.538-.076-1.886 1.897-3.519 3.579-3.396.981.077 1.32 1.735 2.18 2.326.269.152.891.127 1.3.053.313-.053 1.15-.25 1.15-.993 0-.618-.743-1.309-1.462-1.756-.72-.345-2.33-.693-3.193-.693zM22.82 31.322c0 1.539-.387 2.355-1.612 2.428l.029.25c2.048-.024 4.129 0 6.127-.047l.024-.127c-.924 0-1.637-.994-1.637-2.23v-4.144c0-1.015 1.218-1.663 2.052-1.586 1.29.12 2.002.963 2.002 1.71v4.069c0 1.241-.368 2.01-1.318 2.08v.228h5.618v-.176c-.835-.1-1.42-.87-1.42-2.035v-4.267c0-.916.784-1.536 2.176-1.56 1.222-.027 1.954.893 1.954 1.761v3.867c0 1.318-.39 2.134-1.365 2.234v.176c2.05.023 3.73.023 5.758 0v-.127c-1.072 0-1.436-.72-1.436-2.23v-4.269c0-1.412-.76-3.1-2.885-3.1-1.437 0-2.495.718-3.097.921-.417.17-.712.368-.813.368-.19 0-.408-.122-.68-.419-.515-.552-1.438-.87-2.418-.87-1.246 0-2.491.718-3.08.921-.068.023-.509.246-.56.246-.095 0-.488 0-.488-.048 0-1.19.025-1.346.025-1.346h-.807c-.239 0-.662.352-1.147.545-.587.252-1.76.225-2.243.354v.84l1.265.248v1.639l-.025 3.696z" fill="#fff"/><path d="M17.292 33.83c2.172-.097 4.26-.564 4.26-2.64 0-1.513-1.673-2.469-3.441-3.225-1.138-.466-2.785-1.15-2.785-1.688 0-.636 1.254-1.858 2.462-.88l2.09 1.735.964-.195-.538-2.59c-.496.024-.84.05-2.64-.246-2.218-.317-4.85.785-4.85 2.836 0 1.37 1.996 2.322 3.573 2.959.86.366 2.388.904 2.388 1.733 0 .807-1.43 1.03-2.24 1.03-1.38 0-2.91-1.836-2.91-1.836h-.906l.492 2.741c.168-.15.787-.125.912-.075.44.167 2.042.416 3.17.341zM12.073 25.52v-1.271l-2.681.024c-.342 0-.32-.073-.32-.513l.026-1.738L7.744 22c-.417.926-.935 1.54-1.229 1.662L4 24.758v.785l.94.027c.42 0 .59-.027.59.464v5.156c0 1.567.86 2.715 3.08 2.763 1.668.047 2.681-.687 3.393-1.37l-.196-.661c-.299.198-.54.368-.937.368-1.893 0-1.844-1.467-1.844-2.764v-3.492c0-.515.045-.515.392-.515h2.655z" fill="#fff"/></svg>