<!-- by TradingView --><svg width="56" height="56" xmlns="http://www.w3.org/2000/svg"><path fill="url(#paint0_linear)" d="M0 0h56v56H0z"/><path d="M14.737 30.191c-.253-.285-.64-.735-.808-1-1.344-2.123-1.055-3.64-.128-4.655 2.55-2.171 8.898-3.146 15.37-1.102-2.88-.035-12.651 2.642-14.434 6.757zm27.01-.551l.075.2c.829 2.371.358 4.827-1.718 6.203-2.836 1.449-7.864 1.543-12.58.169-3.966-1.156-7.473-3.295-10.466-6.11 2.833 1.702 8.45 3.244 11.485 3.465 5.15.374 10.872-1.314 13.203-3.927z" fill="#F68B11"/><path d="M35.333 13.412c9.287 5.382 3.763 22.305-3.624 27.742-6.872 5.057-14.182 2.726-15.769-1.937 1.383 2.02 4.133 2.755 6.573 1.952 6.784-2.67 10.28-14.73 10.732-18.919.302-3.606-.18-6.03-1.454-7.56-1.46-1.515-3.703-2.249-6.977-1.24 2.253-1.817 7.079-2.032 10.52-.038z" fill="#1D59AE"/><path d="M40.528 35.807l.112-.071.021-.014a4.763 4.763 0 00.8-.65c3.61-3.595 4.377-13.595-4.521-18.338-3.17-1.689-10.53-4.049-17.875-.405-2.43 1.206-4.937 3.71-6.285 7.108.994-1.614 2.718-2.707 6.114-3.179 3.387-.418 8.055.099 12.622 1.679 2.949 1.067 5.332 2.382 7.193 3.872 1.538 1.295 2.528 2.524 3.037 3.831.026.067.052.134.076.2.829 2.371.358 4.828-1.718 6.204-.003.002.003-.002 0 0a6.277 6.277 0 00.337-.185l.087-.052z" fill="#EE2B3E"/><path d="M32.985 38.525c-5.203-.285-12.782-2.255-18.149-8.223l-.099-.11c-.253-.286-.64-.736-.808-1.002-1.344-2.122-1.055-3.64-.128-4.654l-.001.001a4.463 4.463 0 00-.605.63c-1.379 1.748-1.543 4.577-.603 7.575 2.043 6.515 10.99 10.432 18.253 9.356 4.642-.688 7.545-3.25 8.754-4.297-2.626.734-4.569.836-6.614.724z" fill="#5A8ED2"/><defs><linearGradient id="paint0_linear" x1="10.418" y1="9.712" x2="68.147" y2="76.017" gradientUnits="userSpaceOnUse"><stop stop-color="#1A1E21"/><stop offset="1" stop-color="#06060A"/></linearGradient></defs></svg>